<?xml version="1.0" encoding="UTF-8" standalone="no"?>
<svg
   xmlns:dc="http://purl.org/dc/elements/1.1/"
   xmlns:cc="http://creativecommons.org/ns#"
   xmlns:rdf="http://www.w3.org/1999/02/22-rdf-syntax-ns#"
   xmlns:svg="http://www.w3.org/2000/svg"
   xmlns="http://www.w3.org/2000/svg"
   width="32.941406mm"
   height="32.927124mm"
   viewBox="0 0 32.941406 32.927124"
   version="1.1"
   id="svg8">
  <defs
     id="defs2" />
  <metadata
     id="metadata5">
    <rdf:RDF>
      <cc:Work
         rdf:about="">
        <dc:format>image/svg+xml</dc:format>
        <dc:type
           rdf:resource="http://purl.org/dc/dcmitype/StillImage" />
        <dc:title></dc:title>
      </cc:Work>
    </rdf:RDF>
  </metadata>
  <path
     style="fill:#e6deb6;fill-opacity:1;stroke-width:0.0117164"
     d="m 7.7323827,32.920484 c -0.81387,-0.0201 -1.7158,-0.14158 -2.43114,-0.32756 -0.80677,-0.20975 -1.73208,-0.64718 -2.36725,-1.1191 -0.3478,-0.2584 -0.84877,-0.7319 -1.17171,-1.10745 -1.06879002,-1.24293 -1.56226002,-2.58421 -1.72205002,-4.68069 -0.0404000047,-0.53072 -0.0511,-5.51245 -0.0288,-13.4621 0.0151,-5.3778802 0.0155,-5.3897302 0.20593,-6.3502702 0.11759,-0.59302 0.227,-0.97765 0.4067,-1.42977 0.73641002,-1.8528 2.30272002,-3.31973 4.23784002,-3.96897999 0.51342,-0.17225 1.23677,-0.33036 1.7516,-0.38286 0.65284,-0.0666 2.02551,-0.0786 10.1932403,-0.0889 7.347899,-0.009 8.504259,3.4e-4 9.296929,0.0778 1.30318,0.12728 2.42331,0.4652 3.30987,0.99852999 1.28547,0.77329 2.31587,1.94125 2.87034,3.25355 0.33913,0.80263 0.60321,2.1329 0.63961,3.222 0.0303,0.90532 0.0195,15.9372102 -0.0125,17.4515202 -0.0242,1.14697 -0.0473,1.40379 -0.18899,2.10256 -0.161,0.79407 -0.36914,1.39886 -0.69776,2.02746 -0.32307,0.61798 -0.70804,1.13965 -1.21551,1.64711 -0.53442,0.53442 -1.07265,0.92509 -1.74084,1.26358 -0.63331,0.32081 -1.19674,0.51283 -1.98006,0.6748 -0.68245,0.14112 -0.94603,0.16373 -2.19682,0.18849 -0.73018,0.0144 -16.6037693,0.024 -17.1586193,0.0103 z m 1.611,-5.49534 c 1.1795103,-0.079 2.0298503,-0.38916 2.6172203,-0.95446 0.30659,-0.29508 0.51437,-0.61001 0.72068,-1.09232 0.11696,-0.2734 0.14401,-0.37989 0.17045,-0.67099 0.0393,-0.43276 0.0549,-1.67718 0.0651,-5.19621 0.01,-3.40121 0.0274,-6.19771 0.0409,-6.50259 0.006,-0.14176 0.0171,-0.28939 0.0242,-0.32805 0.0306,-0.16715 0.16297,-0.30299 0.35385,-0.36325 0.25208,-0.0796 1.29333,-0.30129 3.66423,-0.78025 4.167869,-0.84198 4.932669,-0.9896 5.336199,-1.03003 0.19622,-0.0197 0.26771,9.1e-4 0.37067,0.10662 0.0823,0.0845 0.11338,0.1574 0.1294,0.30359 0.01,0.0893 0.0148,1.19079 0.0182,4.02242 l 0.005,3.8994 -0.0653,0.1416 c -0.14529,0.31527 -0.24092,0.40107 -0.56263,0.50479 -0.18742,0.0604 -0.38772,0.10867 -1.03104,0.24831 -1.18851,0.25799 -1.65353,0.39324 -2.05622,0.59805 -0.26972,0.13718 -0.47894,0.29439 -0.70019,0.52613 -0.529479,0.55457 -0.786979,1.30658 -0.700309,2.04522 0.0505,0.43041 0.16776,0.76091 0.386599,1.08955 0.13978,0.20993 0.39724,0.48622 0.61437,0.65931 0.60285,0.48058 1.35644,0.61852 2.41243,0.44155 0.7654,-0.12826 1.40106,-0.36899 1.77734,-0.67309 0.43042,-0.34786 0.73643,-0.76466 0.95435,-1.29991 0.18798,-0.46171 0.19253,-0.52407 0.21248,-2.91225 0.0162,-1.93262 0.006,-13.4704102 -0.012,-14.1137002 -0.0146,-0.51301 -0.0209,-0.5648 -0.0846,-0.69344 -0.115,-0.23258 -0.31347,-0.34212 -0.61985,-0.34212 -0.20956,0 -1.06153,0.164 -5.722729,1.10163 -4.67022,0.93945 -4.90984,0.98848 -5.18297,1.06055 -0.38262,0.10097 -0.62655,0.33094 -0.73521,0.69314 -0.026,0.0868 -0.0324,0.13725 -0.0404,0.31982 -0.005,0.11921 -0.0148,2.7659402 -0.0214,5.8816102 -0.0132,6.25278 -0.0184,6.71932 -0.0785,7.05325 -0.0275,0.15304 -0.0545,0.20006 -0.19909,0.34714 -0.21755,0.22132 -0.26099,0.23549 -1.5572703,0.50811 -0.88382,0.18588 -1.23912,0.28061 -1.60877,0.42894 -0.76944,0.30875 -1.29388,0.82212 -1.54356,1.51095 -0.19236,0.53068 -0.21471,1.10956 -0.0632,1.63773 0.12127,0.4229 0.32805,0.77241 0.64271,1.08632 0.22091,0.22038 0.40697,0.35425 0.68157,0.49037 0.41915,0.20777 0.84285,0.28306 1.3875,0.24656 z"
     id="path856" />
</svg>
