<?xml version="1.0" encoding="UTF-8" standalone="no"?>
<svg
   xmlns:dc="http://purl.org/dc/elements/1.1/"
   xmlns:cc="http://creativecommons.org/ns#"
   xmlns:rdf="http://www.w3.org/1999/02/22-rdf-syntax-ns#"
   xmlns:svg="http://www.w3.org/2000/svg"
   xmlns="http://www.w3.org/2000/svg"
   xmlns:sodipodi="http://sodipodi.sourceforge.net/DTD/sodipodi-0.dtd"
   xmlns:inkscape="http://www.inkscape.org/namespaces/inkscape"
   sodipodi:docname="bc.svg"
   inkscape:version="1.0rc1 (09960d6, 2020-04-09)"
   id="svg8"
   version="1.1"
   viewBox="0 0 134.9894 135.10071"
   height="135.10071mm"
   width="134.9894mm">
  <defs
     id="defs2">
    <clipPath
       clipPathUnits="userSpaceOnUse"
       id="clipPath28">
      <path
         d="M 2560,0 C 3973.85,0 5120,1146.15 5120,2560 5120,3973.85 3973.85,5120 2560,5120 1146.15,5120 0,3973.85 0,2560 0,1146.15 1146.15,0 2560,0 Z"
         clip-rule="evenodd"
         id="path26"
         inkscape:connector-curvature="0" />
    </clipPath>
    <clipPath
       clipPathUnits="userSpaceOnUse"
       id="clipPath34">
      <path
         d="M 0,0 H 5120 V 5120 H 0 Z"
         id="path32"
         inkscape:connector-curvature="0" />
    </clipPath>
    <clipPath
       clipPathUnits="userSpaceOnUse"
       id="clipPath44">
      <path
         d="m 3248.57,2735.96 c -183.49,0 -277.25,-144.42 -277.25,-362 0,-205.66 101.38,-360.04 277.25,-360.04 198.89,0 273.45,182.02 273.45,360.04 -0.14,185.9 -93.84,362 -273.51,362 M 2761,3275.92 h 217.97 v -522.15 h 3.85 c 59.28,98.87 183.55,160.21 294.46,160.21 311.63,0 462.74,-245.35 462.74,-544.05 0,-274.84 -133.84,-533.97 -426.43,-533.97 -133.85,0 -277.25,33.54 -342.29,168.09 h -3.78 v -140.51 h -206.53 v 1412.35 l 0.01,0.03"
         clip-rule="evenodd"
         id="path42"
         inkscape:connector-curvature="0" />
    </clipPath>
    <clipPath
       clipPathUnits="userSpaceOnUse"
       id="clipPath50">
      <path
         d="M 0,0 H 5120 V 5120 H 0 Z"
         id="path48"
         inkscape:connector-curvature="0" />
    </clipPath>
    <clipPath
       clipPathUnits="userSpaceOnUse"
       id="clipPath60">
      <path
         d="m 4543.89,2544.02 c -17.22,124.62 -105.15,191.92 -225.61,191.92 -112.87,0 -271.54,-61.35 -271.54,-371.91 0,-170.13 72.64,-350.15 261.97,-350.15 126.18,0 214.11,87.14 235.18,233.51 h 217.97 c -40.16,-265.06 -198.84,-411.43 -453.15,-411.43 -309.78,0 -479.95,227.42 -479.95,528.07 0,308.56 162.53,549.89 487.6,549.89 229.44,0 424.54,-118.68 445.5,-369.91 h -217.61 l -0.36,0.01"
         clip-rule="evenodd"
         id="path58"
         inkscape:connector-curvature="0" />
    </clipPath>
    <clipPath
       clipPathUnits="userSpaceOnUse"
       id="clipPath66">
      <path
         d="M 0,0 H 5120 V 5120 H 0 Z"
         id="path64"
         inkscape:connector-curvature="0" />
    </clipPath>
    <clipPath
       clipPathUnits="userSpaceOnUse"
       id="clipPath76">
      <path
         d="M 1998.95,1866.62 H 364.078 l 763.462,1409.3 h 1634.88 l -763.47,-1409.3"
         clip-rule="evenodd"
         id="path74"
         inkscape:connector-curvature="0" />
    </clipPath>
    <clipPath
       clipPathUnits="userSpaceOnUse"
       id="clipPath82">
      <path
         d="M 0,0 H 5120 V 5120 H 0 Z"
         id="path80"
         inkscape:connector-curvature="0" />
    </clipPath>
  </defs>
  <sodipodi:namedview
     inkscape:window-maximized="0"
     inkscape:window-y="23"
     inkscape:window-x="0"
     inkscape:window-height="1035"
     inkscape:window-width="1252"
     fit-margin-bottom="0"
     fit-margin-right="0"
     fit-margin-left="0"
     fit-margin-top="0"
     showgrid="false"
     inkscape:document-rotation="0"
     inkscape:current-layer="layer1"
     inkscape:document-units="mm"
     inkscape:cy="415.13642"
     inkscape:cx="263.66948"
     inkscape:zoom="0.35"
     inkscape:pageshadow="2"
     inkscape:pageopacity="0.0"
     borderopacity="1.0"
     bordercolor="#666666"
     pagecolor="#ffffff"
     id="base" />
  <metadata
     id="metadata5">
    <rdf:RDF>
      <cc:Work
         rdf:about="">
        <dc:format>image/svg+xml</dc:format>
        <dc:type
           rdf:resource="http://purl.org/dc/dcmitype/StillImage" />
        <dc:title></dc:title>
      </cc:Work>
    </rdf:RDF>
  </metadata>
  <g
     transform="translate(-36.070784,-38.32849)"
     id="layer1"
     inkscape:groupmode="layer"
     inkscape:label="Layer 1">
    <path
       inkscape:connector-curvature="0"
       id="path150"
       d="m 101.05194,173.38331 c -17.037744,-0.62629 -33.150804,-7.6668 -45.260214,-19.77622 -10.93146,-10.93146 -17.61551,-24.81261 -19.43676,-40.36542 -0.37891,-3.23575 -0.37891,-11.58091 0,-14.81666 1.81882,-15.53213 8.51984,-29.4485 19.43676,-40.36542 9.66594,-9.66594 21.73196,-16.06908 35.07375,-18.61276 4.47185,-0.85258 7.48984,-1.11834 12.700004,-1.11834 5.21016,0 8.22815,0.26576 12.7,1.11834 13.34179,2.54368 25.40781,8.94682 35.07375,18.61276 10.91692,10.91692 17.61794,24.83329 19.43676,40.36542 0.37891,3.23575 0.37891,11.58091 0,14.81666 -1.04792,8.94885 -3.59152,17.05097 -7.76648,24.73854 -12.30262,22.65345 -36.2679,36.34742 -61.95757,35.4031 z m 25.14597,-48.64602 c 5.43758,-1.41594 8.5884,-6.50694 8.5884,-13.87687 0,-6.38716 -2.59749,-11.38433 -6.94461,-13.36036 -4.23591,-1.92548 -8.76594,-1.32031 -11.74965,1.56964 l -1.41407,1.36963 v -6.82799 -6.828 l -24.540104,3e-5 -24.54011,3e-5 -10.05416,18.54972 c -5.52979,10.20235 -10.09409,18.65646 -10.14288,18.78693 -0.052,0.13903 8.91566,0.20919 21.666,0.16952 l 21.75471,-0.0677 9.95171,-18.37718 9.951704,-18.37719 0.0679,18.44333 0.0679,18.44333 h 2.77633 2.77633 v -1.77191 -1.77192 l 0.78035,1.06112 c 1.89266,2.57362 7.00917,3.90612 11.00416,2.86583 z m -6.69423,-4.96964 c -3.31873,-1.2036 -4.99368,-4.70139 -4.7705,-9.96225 0.17612,-4.15157 1.36514,-6.48904 3.9581,-7.78117 2.40105,-1.19649 5.40094,-0.84353 7.19534,0.84658 4.78255,4.50462 3.56481,15.30244 -1.91077,16.94296 -1.28445,0.38484 -3.34242,0.36361 -4.47217,-0.0461 z m 33.34848,4.99094 c 2.39873,-0.50829 4.17638,-1.52172 5.86104,-3.34136 1.4894,-1.60873 2.6834,-4.10498 2.97256,-6.21464 l 0.15998,-1.16717 h -2.9045 -2.9045 l -0.32937,1.12448 c -0.52245,1.78365 -1.54624,3.32606 -2.72604,4.10697 -0.94863,0.62789 -1.35328,0.72168 -3.11377,0.72168 -1.79166,0 -2.17275,-0.0921 -3.32683,-0.80399 -3.36202,-2.07385 -4.61144,-9.20105 -2.4381,-13.90792 1.1957,-2.58958 2.75482,-3.68336 5.53387,-3.8822 3.13678,-0.22444 5.49281,1.38832 6.19477,4.24046 l 0.17907,0.72761 h 2.91859 2.91859 l -0.16262,-1.37303 c -0.33764,-2.85085 -2.55679,-5.87825 -5.28863,-7.21481 -2.06556,-1.01058 -4.96024,-1.54746 -7.32246,-1.35808 -6.22188,0.49879 -10.32067,4.21404 -11.62907,10.54088 -0.44182,2.13642 -0.3793,6.62139 0.11895,8.53316 1.83345,7.03496 8.04796,10.80223 15.28847,9.26796 z"
       style="fill:#e6deb6;fill-opacity:1;stroke-width:0.264583" />
  </g>
</svg>
