<?xml version="1.0" encoding="UTF-8" standalone="no"?>
<svg
   xmlns:dc="http://purl.org/dc/elements/1.1/"
   xmlns:cc="http://creativecommons.org/ns#"
   xmlns:rdf="http://www.w3.org/1999/02/22-rdf-syntax-ns#"
   xmlns:svg="http://www.w3.org/2000/svg"
   xmlns="http://www.w3.org/2000/svg"
   id="svg8"
   version="1.1"
   viewBox="0 0 113.73186 113.91329"
   height="113.91329mm"
   width="113.73186mm">
  <defs
     id="defs2" />
  <metadata
     id="metadata5">
    <rdf:RDF>
      <cc:Work
         rdf:about="">
        <dc:format>image/svg+xml</dc:format>
        <dc:type
           rdf:resource="http://purl.org/dc/dcmitype/StillImage" />
        <dc:title></dc:title>
      </cc:Work>
    </rdf:RDF>
  </metadata>
  <g
     transform="translate(-176.63566,-39.887239)"
     id="layer1">
    <path
       id="path893"
       d="m 194.82483,153.46848 c -7.02102,-0.91005 -13.85271,-6.18069 -16.61647,-12.81957 -1.64746,-3.95739 -1.57217,-1.8572 -1.57217,-43.858807 0,-41.773661 -0.0548,-40.154024 1.48031,-43.804179 2.08051,-4.947163 6.67095,-9.537624 11.61812,-11.618125 3.65017,-1.535051 2.03052,-1.480317 43.80419,-1.480317 33.16808,0 38.49834,0.05218 40.11757,0.392807 3.78573,0.796354 6.74767,2.362376 9.75724,5.158804 3.22892,3.000223 5.36517,6.519757 6.46949,10.658672 0.46273,1.734245 0.48441,3.552002 0.48441,40.590544 V 135.4633 l -0.58155,2.18118 c -1.9602,7.35191 -7.93797,13.37231 -15.25472,15.36355 -1.86605,0.50783 -2.87138,0.57149 -10.68375,0.67652 l -8.62388,0.11598 v -22.07198 -22.07198 h 7.27036 c 5.58328,0 7.29647,-0.0753 7.38297,-0.32421 0.10783,-0.31056 2.20538,-16.293633 2.20538,-16.805238 0,-0.152653 -3.24065,-0.247991 -8.42935,-0.247991 h -8.42936 v -6.53194 c 0,-7.771931 0.22298,-9.009437 1.93058,-10.711289 1.61564,-1.610277 2.31005,-1.750999 9.28695,-1.88195 l 6.15991,-0.115614 v -7.733762 -7.733742 l -2.26944,-0.217804 c -1.24821,-0.119797 -5.24565,-0.211737 -8.88324,-0.204324 -7.65345,0.01573 -8.92107,0.241842 -13.2276,2.36098 -2.07442,1.020765 -2.83799,1.586298 -4.82976,3.577083 -2.00909,2.008077 -2.54549,2.734922 -3.55736,4.820343 -2.11247,4.353741 -2.29927,5.550723 -2.43749,15.618458 l -0.12019,8.753552 h -7.36614 -7.36617 v 8.688708 8.68871 h 7.39189 7.3919 v 22.04597 22.04601 l -20.42498,-0.0329 c -11.23373,-0.0169 -21.16866,-0.12918 -22.07768,-0.24712 z"
       style="fill:#e6deb6;fill-opacity:1;stroke-width:0.259364" />
  </g>
</svg>
