<?xml version="1.0" encoding="UTF-8" standalone="no"?>
<svg
   xmlns:dc="http://purl.org/dc/elements/1.1/"
   xmlns:cc="http://creativecommons.org/ns#"
   xmlns:rdf="http://www.w3.org/1999/02/22-rdf-syntax-ns#"
   xmlns:svg="http://www.w3.org/2000/svg"
   xmlns="http://www.w3.org/2000/svg"
   id="svg8"
   version="1.1"
   viewBox="0 0 112.04943 114.20525"
   height="114.20525mm"
   width="112.04943mm">
  <defs
     id="defs2" />
  <metadata
     id="metadata5">
    <rdf:RDF>
      <cc:Work
         rdf:about="">
        <dc:format>image/svg+xml</dc:format>
        <dc:type
           rdf:resource="http://purl.org/dc/dcmitype/StillImage" />
        <dc:title></dc:title>
      </cc:Work>
    </rdf:RDF>
  </metadata>
  <g
     transform="translate(-43.182677,-40.068936)"
     id="layer1">
    <path
       id="path24"
       d="m 69.684447,154.22969 c -4.58946,-0.20896 -9.18502,-1.63566 -13.13896,-4.07901 -3.32573,-2.05515 -5.99028,-4.55377 -8.29187,-7.77554 -2.78665,-3.90075 -4.5803,-8.81565 -4.99673,-13.69182 -0.0476,-0.55741 -0.0748,-12.12964 -0.0742,-31.590633 9.8e-4,-32.96163 -0.0146,-31.56661 0.37752,-33.84709 0.45781,-2.66269 1.28577,-5.15797 2.5761,-7.7638 1.30299,-2.63141 2.82758,-4.76407 4.99779,-6.99114 4.49516,-4.61294 10.03667,-7.384975 16.56161,-8.284619 0.94228,-0.129919 2.59344,-0.137102 31.51413,-0.137102 29.223263,0 30.562003,0.006 31.514143,0.140735 3.3876,0.479452 5.97257,1.26281 8.87291,2.688876 8.02959,3.94809 13.76428,11.59872 15.26235,20.36148 0.40553,2.37213 0.38781,0.68012 0.36066,34.44459 -0.0275,34.208143 0.01,31.364193 -0.44371,33.770603 -1.28582,6.8219 -5.14317,13.00186 -10.74285,17.21139 -3.48089,2.61674 -7.85075,4.50074 -12.04727,5.19398 -2.46154,0.40663 -0.17234,0.37845 -31.85834,0.39217 -16.070683,0.007 -29.770153,-0.0124 -30.443273,-0.0431 z m 56.067633,-8.97546 c 4.69152,-0.68993 8.42124,-2.26397 11.89429,-5.01971 1.02949,-0.81687 2.9296,-2.71658 3.74996,-3.74916 2.26532,-2.85137 3.99118,-6.51283 4.65258,-9.87062 0.47057,-2.38901 0.43212,0.2314 0.43212,-29.445563 v -26.96294 l -0.17562,-1.12747 c -0.80365,-5.1592 -3.06285,-9.61258 -6.74399,-13.29384 -3.65768,-3.6578 -8.17167,-5.899 -13.50338,-6.70442 -0.87255,-0.13181 -2.20058,-0.13866 -26.886453,-0.13866 h -25.96857 l -1.03358,0.16581 c -4.40892,0.70728 -8.13421,2.33482 -11.5055,5.02665 -1.01909,0.8137 -2.75508,2.55702 -3.58881,3.60396 -3.12155,3.91985 -4.8716,8.46704 -5.17435,13.44467 -0.0972,1.59756 -0.0993,50.267653 -0.002,51.916563 0.44059,7.48789 4.31722,14.19786 10.64139,18.41894 3.4034,2.27161 7.72896,3.68715 11.81054,3.86502 0.29449,0.0128 11.77381,0.0194 25.50962,0.0146 23.439553,-0.008 25.030593,-0.0171 25.892073,-0.14378 z M 97.565277,125.80224 c -4.02393,-0.28287 -7.52081,-1.19919 -10.89991,-2.8562 -3.06434,-1.50267 -5.27482,-3.08781 -7.72828,-5.54196 -1.86995,-1.87049 -3.04806,-3.36397 -4.32355,-5.48093 -3.72426,-6.18129 -4.97256,-13.523253 -3.5063,-20.622733 1.61441,-7.81689 6.47991,-14.63598 13.41639,-18.80334 4.01383,-2.41146 8.75634,-3.83092 13.36527,-4.00028 5.315923,-0.19535 9.935423,0.81093 14.477323,3.15364 5.52536,2.84998 9.92688,7.37125 12.66661,13.01125 3.85847,7.94302 3.82585,17.186453 -0.0888,25.166693 -1.40314,2.86037 -3.11805,5.23628 -5.49734,7.61623 -4.94935,4.95073 -11.20353,7.79999 -18.28632,8.33079 -0.95108,0.0713 -2.769753,0.0849 -3.595063,0.0268 z m 3.939273,-7.17563 c 4.69656,-0.52644 9.06632,-2.64564 12.46661,-6.04593 4.90478,-4.90478 7.15529,-11.87187 6.08678,-18.843343 -1.26604,-8.26027 -7.27978,-15.16384 -15.15571,-17.39827 -2.05804,-0.58387 -3.48964,-0.77682 -5.730643,-0.77237 -1.78291,0.004 -2.86218,0.1082 -4.25447,0.41253 -5.374,1.17465 -10.08119,4.39347 -13.1465,8.9897 -3.75065,5.62388 -4.69222,12.61257 -2.56969,19.073243 2.60604,7.93237 9.51938,13.64824 17.63769,14.58264 1.16969,0.13463 3.472963,0.13552 4.665933,0.002 z m 25.9549,-42.836353 c -1.71065,-0.28788 -3.34414,-1.15055 -4.61585,-2.4377 -1.65717,-1.67728 -2.48411,-3.67903 -2.48411,-6.01315 0,-2.42059 0.83836,-4.45498 2.52912,-6.13725 1.56814,-1.56026 3.48438,-2.39617 5.69362,-2.48368 3.18348,-0.12611 6.02575,1.37519 7.69098,4.06242 2.65332,4.28173 1.05112,9.93025 -3.46441,12.21367 -1.57892,0.79843 -3.5717,1.09485 -5.34935,0.79569 z"
       style="fill:#e6deb6;stroke-width:0.0764906;fill-opacity:1" />
  </g>
</svg>
