<?xml version="1.0" encoding="UTF-8" standalone="no"?>
<svg
   xmlns:dc="http://purl.org/dc/elements/1.1/"
   xmlns:cc="http://creativecommons.org/ns#"
   xmlns:rdf="http://www.w3.org/1999/02/22-rdf-syntax-ns#"
   xmlns:svg="http://www.w3.org/2000/svg"
   xmlns="http://www.w3.org/2000/svg"
   width="20.897291mm"
   height="20.89279mm"
   viewBox="0 0 20.897291 20.89279"
   version="1.1"
   id="svg8">
  <defs
     id="defs2" />
  <metadata
     id="metadata5">
    <rdf:RDF>
      <cc:Work
         rdf:about="">
        <dc:format>image/svg+xml</dc:format>
        <dc:type
           rdf:resource="http://purl.org/dc/dcmitype/StillImage" />
        <dc:title></dc:title>
      </cc:Work>
    </rdf:RDF>
  </metadata>
  <g
     style="fill:#e6deb6;fill-opacity:1"
     id="layer1"
     transform="translate(-114.65599,-116.59516)">
    <path
       style="fill:#e6deb6;fill-opacity:1;stroke-width:0.00940552"
       d="m 124.55988,137.4786 c -0.52086,-0.0226 -1.16974,-0.11064 -1.72609,-0.23423 -1.92368,-0.42732 -3.64173,-1.35941 -5.05407,-2.74197 -1.51182,-1.47995 -2.52504,-3.3537 -2.9448,-5.4458 -0.14603,-0.7279 -0.17919,-1.11647 -0.17893,-2.09743 1.8e-4,-0.73829 0.0186,-1.00126 0.10823,-1.55056 0.22243,-1.36215 0.66105,-2.57474 1.34773,-3.72592 0.56776,-0.95182 1.31429,-1.84274 2.13666,-2.54988 0.44222,-0.38027 0.72649,-0.59308 1.1945,-0.89422 1.19861,-0.77125 2.44889,-1.25735 3.88943,-1.51221 0.62584,-0.11072 0.89529,-0.13126 1.72095,-0.13122 0.82533,5e-5 1.12226,0.0193 1.65537,0.10736 1.21705,0.20103 2.20255,0.5254 3.2308,1.06339 1.237,0.6472 2.29156,1.50273 3.21643,2.6094 0.89425,1.07001 1.58912,2.37711 1.98005,3.72457 0.556,1.91645 0.55619,3.94036 5.5e-4,5.86256 -0.54255,1.87679 -1.59797,3.54309 -3.09041,4.87912 -1.47171,1.31746 -3.24659,2.17182 -5.20571,2.5058 -0.65725,0.11204 -1.54512,0.16313 -2.28066,0.13123 z m 4.94713,-5.54292 c 0.10616,-0.0234 0.23612,-0.10848 0.32137,-0.21049 0.0448,-0.0536 0.10487,-0.17406 0.1254,-0.25137 0.0245,-0.0924 0.0284,-0.20563 0.01,-0.29633 -0.0503,-0.24835 -0.19481,-0.37993 -0.74952,-0.68251 -1.21761,-0.66421 -2.60261,-1.09498 -4.10898,-1.27802 -0.33705,-0.0409 -0.61508,-0.0634 -1.00639,-0.0813 -0.27501,-0.0126 -1.18055,-0.006 -1.43435,0.01 -0.60528,0.0385 -1.05676,0.0836 -1.56601,0.15612 -0.57041,0.0813 -1.40422,0.24022 -1.60834,0.30651 -0.13532,0.0439 -0.27878,0.14253 -0.35144,0.24153 -0.15569,0.21209 -0.15456,0.51739 0.002,0.74946 0.0372,0.055 0.14728,0.15724 0.20758,0.19296 0.14907,0.0883 0.33758,0.0892 0.74304,0.003 0.35103,-0.0742 0.49195,-0.10097 0.83708,-0.15853 0.69142,-0.11531 0.9906,-0.15154 1.5539,-0.18821 0.90356,-0.0588 2.00198,-0.0278 2.68329,0.0755 1.35244,0.20527 2.52025,0.5947 3.56939,1.19027 0.37962,0.2155 0.46052,0.24692 0.61606,0.23927 0.0517,-0.002 0.12157,-0.0108 0.15519,-0.0181 z m 1.12215,-2.76616 c 0.15338,-0.0267 0.27961,-0.0893 0.39943,-0.19783 0.15645,-0.14176 0.23461,-0.321 0.24409,-0.55978 0.0124,-0.31331 -0.0945,-0.52079 -0.36426,-0.707 -0.30526,-0.21067 -0.9211,-0.53206 -1.49547,-0.78046 -1.8209,-0.78745 -3.9419,-1.21129 -6.06185,-1.21132 -0.59051,-1e-5 -1.13947,0.0307 -1.76824,0.0992 -0.60296,0.0656 -0.9347,0.11996 -1.46726,0.24031 -0.49998,0.113 -0.72414,0.17331 -0.91846,0.24714 -0.30415,0.11555 -0.42328,0.21371 -0.5264,0.43375 -0.1136,0.24243 -0.11479,0.46232 -0.003,0.68649 0.10325,0.20833 0.27184,0.35509 0.4939,0.42993 0.084,0.0282 0.0973,0.0301 0.22104,0.0298 0.12637,-3.4e-4 0.1383,-0.002 0.29627,-0.0442 0.77905,-0.20754 1.23132,-0.29845 1.97045,-0.39611 0.31506,-0.0417 0.5158,-0.0606 0.87002,-0.0824 0.25545,-0.0157 1.26115,-0.0156 1.5425,1.1e-4 1.03254,0.0577 1.85453,0.17781 2.7464,0.40124 0.3921,0.0983 0.62529,0.16607 1.00169,0.29136 0.713,0.23734 1.28673,0.48996 1.99868,0.88006 0.3399,0.18625 0.41598,0.22513 0.47027,0.24029 0.0593,0.0166 0.25459,0.0162 0.3509,-5.3e-4 z m 1.32797,-3.20754 c 0.34539,-0.0908 0.56003,-0.25912 0.71037,-0.55692 0.0617,-0.12214 0.0694,-0.16663 0.0699,-0.40223 4.5e-4,-0.23609 -0.004,-0.26491 -0.0748,-0.39691 -0.0854,-0.1614 -0.18454,-0.28041 -0.32074,-0.38472 -0.19837,-0.15194 -0.82525,-0.47766 -1.38644,-0.72037 -1.40987,-0.60975 -3.14813,-1.05051 -4.92378,-1.24851 -1.18586,-0.13223 -2.6475,-0.16606 -3.87036,-0.0896 -0.93929,0.0588 -1.8777,0.18859 -2.64766,0.36635 -0.46141,0.10649 -0.89845,0.22173 -1.02288,0.26967 -0.26768,0.10313 -0.49726,0.3706 -0.57822,0.67373 -0.0209,0.078 -0.0245,0.11174 -0.0251,0.23238 -5.4e-4,0.11935 0.002,0.15335 0.0209,0.22081 0.0795,0.29303 0.2569,0.51798 0.5048,0.64035 0.13319,0.0657 0.17997,0.0762 0.3638,0.0816 0.23925,0.006 0.35968,-0.0115 0.67751,-0.10389 0.61656,-0.17927 1.95793,-0.39596 2.71619,-0.43881 0.54899,-0.031 1.8731,-0.0427 2.35138,-0.0207 1.01233,0.0465 1.85339,0.14923 2.82037,0.34448 1.50453,0.30379 2.56548,0.66896 3.6852,1.26838 0.3253,0.17416 0.48411,0.2454 0.60974,0.27357 0.0794,0.0179 0.23503,0.0135 0.31974,-0.009 z"
       id="path861" />
  </g>
</svg>
