<?xml version="1.0" encoding="UTF-8" standalone="no"?>
<svg
   xmlns:dc="http://purl.org/dc/elements/1.1/"
   xmlns:cc="http://creativecommons.org/ns#"
   xmlns:rdf="http://www.w3.org/1999/02/22-rdf-syntax-ns#"
   xmlns:svg="http://www.w3.org/2000/svg"
   xmlns="http://www.w3.org/2000/svg"
   xmlns:sodipodi="http://sodipodi.sourceforge.net/DTD/sodipodi-0.dtd"
   xmlns:inkscape="http://www.inkscape.org/namespaces/inkscape"
   inkscape:version="1.0rc1 (09960d6, 2020-04-09)"
   sodipodi:docname="youtube.svg"
   id="svg8"
   version="1.1"
   viewBox="0 0 36.741505 25.787565"
   height="25.787565mm"
   width="36.741505mm">
  <sodipodi:namedview
     inkscape:current-layer="svg8"
     inkscape:window-maximized="0"
     inkscape:window-y="23"
     inkscape:window-x="0"
     inkscape:cy="48.732407"
     inkscape:cx="69.432765"
     inkscape:zoom="5.0696527"
     showgrid="false"
     id="namedview837"
     inkscape:window-height="480"
     inkscape:window-width="784"
     inkscape:pageshadow="2"
     inkscape:pageopacity="0"
     guidetolerance="10"
     gridtolerance="10"
     objecttolerance="10"
     borderopacity="1"
     bordercolor="#666666"
     pagecolor="#ffffff" />
  <defs
     id="defs2" />
  <metadata
     id="metadata5">
    <rdf:RDF>
      <cc:Work
         rdf:about="">
        <dc:format>image/svg+xml</dc:format>
        <dc:type
           rdf:resource="http://purl.org/dc/dcmitype/StillImage" />
        <dc:title></dc:title>
      </cc:Work>
    </rdf:RDF>
  </metadata>
  <path
     id="path888"
     d="m 13.633581,25.774997 c -1.338271,-0.0149 -4.4475652,-0.11331 -5.9704842,-0.18896 -2.151157,-0.10687 -3.130202,-0.23923 -4.028279,-0.54458 -1.777046,-0.60421 -2.77389299,-1.99764 -3.21718599,-4.49708 -0.187703,-1.05831 -0.33662,-2.90014 -0.401842,-4.96994 -0.02124,-0.67439 -0.02098,-3.69084 3.48e-4,-4.5776 0.06224,-2.5834196 0.171783,-4.3047696 0.343287,-5.3950096 0.208229,-1.32373 0.68387699,-2.67039 1.17016099,-3.31299 0.276612,-0.36552 0.717911,-0.78105 1.143935,-1.07713 0.510518,-0.35481 1.10157,-0.59724 1.746024,-0.71615 0.720966,-0.13303 2.060682,-0.23538 4.459881,-0.34071 3.5355622,-0.155229997 10.0488392,-0.20047 15.1125792,-0.10498 3.94146,0.0743 7.20028,0.24231 8.25071,0.42531 0.963,0.16777 1.81032,0.61339 2.54396,1.33794 0.60113,0.59365 0.97391,1.29145 1.28344,2.40235 0.35283,1.26638 0.54607,2.99593 0.63417,5.67621 0.0652,1.9841796 0.0416,5.6099596 -0.0463,7.1083396 -0.0537,0.91549 -0.16597,2.22151 -0.24845,2.89042 -0.11694,0.94825 -0.31099,1.75519 -0.59602,2.47844 -0.10256,0.26021 -0.32424,0.70508 -0.45473,0.91257 -0.61021,0.97015 -1.45342,1.58574 -2.63843,1.92619 -0.54783,0.15739 -1.20009,0.24423 -2.3982,0.31929 -1.30563,0.0818 -1.99126,0.11301 -3.60321,0.16405 -0.56828,0.018 -1.26864,0.0415 -1.55638,0.0524 -0.99827,0.0375 -9.02362,0.0595 -11.528983,0.0316 z m 1.058804,-8.19376 c 0.164428,-0.0669 1.49784,-0.74779 4.17927,-2.13436 2.19173,-1.13335 5.37196,-2.79182 5.51755,-2.87738 0.0643,-0.0378 -2.85257,-1.5896 -8.9145,-4.7426096 -0.451236,-0.2347 -0.825929,-0.42672 -0.832658,-0.42672 -0.007,0 -0.01532,0.0397 -0.01906,0.0883 -0.0161,0.20785 -0.03299,2.49149 -0.04178,5.6206196 -0.0088,3.13463 -0.0026,4.50566 0.01941,4.50566 0.0052,0 0.0464,-0.0151 0.09169,-0.0335 z"
     style="fill:#e6deb6;fill-opacity:1;stroke-width:0.0130788" />
</svg>
